<?xml version="1.0" encoding="utf-8"?>
<!-- Generator: Adobe Illustrator 17.0.2, SVG Export Plug-In . SVG Version: 6.00 Build 0)  -->
<!DOCTYPE svg PUBLIC "-//W3C//DTD SVG 1.1//EN" "http://www.w3.org/Graphics/SVG/1.1/DTD/svg11.dtd">
<svg version="1.1" id="Layer_1" xmlns="http://www.w3.org/2000/svg" xmlns:xlink="http://www.w3.org/1999/xlink" x="0px" y="0px"
	 width="337px" height="118px" viewBox="0 0 337 118" enable-background="new 0 0 337 118" xml:space="preserve">
<path fill="#0D95CD" d="M4.342,18.677H2.348v3.03H1v-7.419h3.342c1.087,0,1.983,0.887,1.983,1.984v0.423
	C6.325,17.781,5.429,18.677,4.342,18.677 M4.966,16.201c0-0.313-0.252-0.564-0.564-0.564H2.348v1.681h2.054
	c0.312,0,0.564-0.252,0.564-0.565V16.201z"/>
<polygon fill="#0D95CD" points="7.894,21.707 7.894,20.358 8.941,20.358 8.941,15.638 7.894,15.638 7.894,14.289 11.347,14.289 
	11.347,15.638 10.299,15.638 10.299,20.358 11.347,20.358 11.347,21.707 "/>
<path fill="#0D95CD" d="M16.773,21.707h-1.359c-1.097,0-1.984-0.885-1.984-1.983v-3.452c0-1.097,0.887-1.984,1.984-1.984h1.359
	c1.086,0,1.982,0.887,1.982,1.984v3.452C18.754,20.822,17.859,21.707,16.773,21.707 M17.396,16.201c0-0.313-0.252-0.564-0.564-0.564
	h-1.49c-0.312,0-0.564,0.251-0.564,0.564v3.594c0,0.312,0.252,0.562,0.564,0.562h1.49c0.312,0,0.564-0.251,0.564-0.562V16.201z"/>
<polygon fill="#0D95CD" points="25.076,21.707 22.388,16.936 22.388,21.707 21.039,21.707 21.039,14.289 22.347,14.289 
	25.005,18.939 25.005,14.289 26.364,14.289 26.364,21.707 "/>
<polygon fill="#0D95CD" points="28.85,21.707 28.85,14.289 34.174,14.289 34.174,15.638 30.199,15.638 30.199,17.228 33.239,17.228 
	33.239,18.587 30.199,18.587 30.199,20.358 34.174,20.358 34.174,21.707 "/>
<polygon fill="#0D95CD" points="36.298,21.707 36.298,14.289 41.622,14.289 41.622,15.638 37.647,15.638 37.647,17.228 
	40.687,17.228 40.687,18.587 37.647,18.587 37.647,20.358 41.622,20.358 41.622,21.707 "/>
<path fill="#0D95CD" d="M47.751,21.707c0,0,0.031-0.584-0.11-0.855c-0.111-0.221-1.379-2.175-1.379-2.175h-1.168v3.03h-1.348v-7.419
	h3.342c1.087,0,1.983,0.887,1.983,1.984v0.423c0,0.894-0.594,1.63-1.288,1.831c0,0,0.826,1.329,1.147,1.853
	c0.171,0.281,0.141,1.328,0.141,1.328H47.751z M47.711,16.201c0-0.313-0.252-0.564-0.564-0.564h-2.054v1.681h2.054
	c0.312,0,0.564-0.252,0.564-0.565V16.201z"/>
<polygon fill="#0D95CD" points="51.254,21.707 51.254,14.289 56.579,14.289 56.579,15.638 52.603,15.638 52.603,17.228 
	55.644,17.228 55.644,18.587 52.603,18.587 52.603,20.358 56.579,20.358 56.579,21.707 "/>
<path fill="#0D95CD" d="M62.044,21.707h-3.342v-7.419h3.342c1.087,0,1.983,0.887,1.983,1.984v3.452
	C64.027,20.822,63.132,21.707,62.044,21.707 M62.668,16.201c0-0.313-0.252-0.564-0.564-0.564H60.05v4.72h2.054
	c0.312,0,0.564-0.251,0.564-0.562V16.201z"/>
<path fill="#0D95CD" d="M73.93,21.707h-3.342v-7.419h3.342c1.087,0,1.983,0.887,1.983,1.983v0.332c0,0.494-0.191,0.958-0.494,1.309
	c0.303,0.342,0.494,0.804,0.494,1.298v0.514C75.913,20.822,75.018,21.707,73.93,21.707 M74.554,16.202
	c0-0.313-0.252-0.564-0.564-0.564h-2.054v1.6h2.054c0.312,0,0.564-0.252,0.564-0.574V16.202z M74.554,19.151
	c0-0.302-0.252-0.564-0.564-0.564h-2.054v1.771h2.054c0.312,0,0.564-0.251,0.564-0.562V19.151z"/>
<path fill="#0D95CD" d="M82.697,15.647l-1.863,3.16v2.899h-1.358v-2.899l-1.872-3.16c-0.111-0.241-0.111-0.252-0.111-1.359h1.298
	c0,0-0.01,0.796,0.04,0.927c0.181,0.353,1.319,2.415,1.319,2.415s1.117-1.983,1.308-2.415c0.07-0.08,0.05-0.927,0.05-0.927h1.299
	C82.808,15.407,82.798,15.486,82.697,15.647"/>
<polygon fill="#0D95CD" points="91.604,15.638 91.604,21.707 90.244,21.707 90.244,15.638 88.262,15.638 88.262,14.288 
	93.587,14.288 93.587,15.638 "/>
<polygon fill="#0D95CD" points="99.334,21.707 99.334,18.587 96.716,18.587 96.716,21.707 95.368,21.707 95.368,14.289 
	96.716,14.289 96.716,17.238 99.334,17.238 99.334,14.289 100.693,14.289 100.693,21.707 "/>
<polygon fill="#0D95CD" points="103.178,21.707 103.178,14.289 108.503,14.289 108.503,15.638 104.528,15.638 104.528,17.228 
	107.568,17.228 107.568,18.587 104.528,18.587 104.528,20.358 108.503,20.358 108.503,21.707 "/>
<path fill="#0D95CD" d="M5.005,34.288c0,0,0.031-0.584-0.11-0.855c-0.111-0.221-1.379-2.175-1.379-2.175H2.348v3.03H1v-7.419h3.342
	c1.087,0,1.983,0.887,1.983,1.984v0.423c0,0.894-0.594,1.63-1.288,1.831c0,0,0.826,1.329,1.147,1.853
	c0.171,0.281,0.141,1.328,0.141,1.328S5.005,34.288,5.005,34.288z M4.966,28.782c0-0.313-0.252-0.564-0.564-0.564H2.348V29.9h2.054
	c0.312,0,0.564-0.252,0.564-0.565V28.782z"/>
<path fill="#0D95CD" d="M11.649,34.288H10.29c-1.097,0-1.984-0.885-1.984-1.983v-3.452c0-1.097,0.887-1.984,1.984-1.984h1.359
	c1.086,0,1.982,0.887,1.982,1.984v3.452C13.631,33.403,12.736,34.288,11.649,34.288 M12.273,28.782c0-0.313-0.252-0.564-0.564-0.564
	h-1.49c-0.312,0-0.564,0.251-0.564,0.564v3.594c0,0.312,0.252,0.562,0.564,0.562h1.49c0.312,0,0.564-0.251,0.564-0.562V28.782z"/>
<path fill="#0D95CD" d="M19.771,28.943c0,0-0.04-0.13-0.07-0.201c-0.121-0.343-0.252-0.524-0.564-0.524h-1.51
	c-0.312,0-0.564,0.251-0.564,0.564v3.594c0,0.312,0.252,0.562,0.564,0.562h1.49c0.312,0,0.453-0.18,0.574-0.523
	c0.02-0.081,0.06-0.202,0.06-0.202l1.268,0.333c-0.121,0.986-0.956,1.741-1.963,1.741h-1.359c-1.096,0-1.983-0.885-1.983-1.983
	v-3.452c0-1.097,0.887-1.984,1.983-1.984h1.369c1.006,0,1.842,0.754,1.973,1.732L19.771,28.943z"/>
<path fill="#0D95CD" d="M26.917,34.288c0,0,0.05-0.584-0.091-0.857c-0.12-0.219-1.53-2.364-1.53-2.364l-0.986,1.378v1.843h-1.348
	v-7.419h1.348v3.171l2.336-3.171h1.54l-2.054,2.939c0,0,1.591,2.536,1.913,3.05c0.211,0.342,0.181,1.358,0.171,1.429L26.917,34.288
	L26.917,34.288z"/>
<polygon fill="#0D95CD" points="30.238,34.288 30.238,26.869 35.563,26.869 35.563,28.219 31.588,28.219 31.588,29.809 
	34.628,29.809 34.628,31.168 31.588,31.168 31.588,32.939 35.563,32.939 35.563,34.288 "/>
<polygon fill="#0D95CD" points="39.035,28.219 39.035,29.809 42.075,29.809 42.075,31.168 39.035,31.168 39.035,34.288 
	37.686,34.288 37.686,26.869 43.011,26.869 43.011,28.219 "/>
<polygon fill="#0D95CD" points="44.731,34.288 44.731,26.869 50.056,26.869 50.056,28.219 46.081,28.219 46.081,29.809 
	49.121,29.809 49.121,31.168 46.081,31.168 46.081,32.939 50.056,32.939 50.056,34.288 "/>
<polygon fill="#0D95CD" points="52.179,34.288 52.179,26.869 53.529,26.869 53.529,32.939 57.504,32.939 57.504,34.288 "/>
<polygon fill="#0D95CD" points="59.225,34.288 59.225,26.869 60.574,26.869 60.574,32.939 64.55,32.939 64.55,34.288 "/>
<polygon fill="#0D95CD" points="66.271,34.288 66.271,26.869 71.595,26.869 71.595,28.219 67.62,28.219 67.62,29.809 70.66,29.809 
	70.66,31.168 67.62,31.168 67.62,32.939 71.595,32.939 71.595,34.288 "/>
<path fill="#0D95CD" d="M77.724,34.288c0,0,0.031-0.584-0.11-0.855c-0.111-0.221-1.379-2.175-1.379-2.175h-1.168v3.03h-1.348v-7.419
	h3.342c1.087,0,1.983,0.887,1.983,1.984v0.423c0,0.894-0.594,1.63-1.288,1.831c0,0,0.826,1.329,1.147,1.853
	c0.171,0.281,0.141,1.328,0.141,1.328S77.724,34.288,77.724,34.288z M77.684,28.782c0-0.313-0.252-0.564-0.564-0.564h-2.054V29.9
	h2.054c0.312,0,0.564-0.252,0.564-0.565V28.782z"/>
<polygon fill="#0D95CD" points="86.853,28.219 86.853,29.809 89.893,29.809 89.893,31.168 86.853,31.168 86.853,34.288 
	85.504,34.288 85.504,26.869 90.829,26.869 90.829,28.219 "/>
<path fill="#0D95CD" d="M95.691,34.288h-1.359c-1.097,0-1.984-0.885-1.984-1.983v-3.452c0-1.097,0.887-1.984,1.984-1.984h1.359
	c1.086,0,1.981,0.887,1.981,1.984v3.452C97.673,33.403,96.777,34.288,95.691,34.288 M96.315,28.782c0-0.313-0.252-0.564-0.564-0.564
	h-1.49c-0.312,0-0.564,0.251-0.564,0.564v3.594c0,0.312,0.252,0.562,0.564,0.562h1.49c0.312,0,0.564-0.251,0.564-0.562V28.782z"/>
<path fill="#0D95CD" d="M103.099,34.288h-1.359c-1.097,0-1.983-0.885-1.983-1.983v-5.436h1.349v5.507
	c0,0.312,0.252,0.562,0.564,0.562h1.489c0.312,0,0.564-0.251,0.564-0.562v-5.507h1.359v5.436
	C105.081,33.403,104.186,34.288,103.099,34.288"/>
<polygon fill="#0D95CD" points="111.402,34.288 108.715,29.517 108.715,34.288 107.365,34.288 107.365,26.869 108.674,26.869 
	111.331,31.52 111.331,26.869 112.69,26.869 112.69,34.288 "/>
<path fill="#0D95CD" d="M118.77,34.288h-3.342v-7.419h3.342c1.087,0,1.983,0.887,1.983,1.984v3.452
	C120.753,33.403,119.857,34.288,118.77,34.288 M119.393,28.782c0-0.313-0.252-0.564-0.564-0.564h-2.054v4.72h2.054
	c0.312,0,0.564-0.251,0.564-0.562V28.782z"/>
<path fill="#0D95CD" d="M126.539,34.287c0,0,0.01-0.643-0.031-0.784c-0.11-0.363-0.171-0.584-0.171-0.584h-2.334
	c0,0-0.051,0.181-0.151,0.574c-0.041,0.141-0.031,0.794-0.031,0.794h-1.298c0-1.116,0.02-1.056,0.111-1.358l1.902-6.061h1.289
	c0,0,1.67,5.234,1.902,6.061c0.081,0.302,0.111,0.252,0.111,1.358H126.539z M125.18,29.114l-0.776,2.477h1.551L125.18,29.114z"/>
<polygon fill="#0D95CD" points="131.892,28.219 131.892,34.288 130.533,34.288 130.533,28.219 128.55,28.219 128.55,26.869 
	133.875,26.869 133.875,28.219 "/>
<polygon fill="#0D95CD" points="135.454,34.288 135.454,32.939 136.502,32.939 136.502,28.219 135.454,28.219 135.454,26.869 
	138.907,26.869 138.907,28.219 137.86,28.219 137.86,32.939 138.907,32.939 138.907,34.288 "/>
<path fill="#0D95CD" d="M144.333,34.288h-1.359c-1.097,0-1.984-0.885-1.984-1.983v-3.452c0-1.097,0.887-1.984,1.984-1.984h1.359
	c1.086,0,1.982,0.887,1.982,1.984v3.452C146.315,33.403,145.419,34.288,144.333,34.288 M144.957,28.782
	c0-0.313-0.252-0.564-0.564-0.564h-1.49c-0.312,0-0.564,0.251-0.564,0.564v3.594c0,0.312,0.252,0.562,0.564,0.562h1.49
	c0.312,0,0.564-0.251,0.564-0.562V28.782z"/>
<polygon fill="#0D95CD" points="152.636,34.288 149.949,29.517 149.949,34.288 148.599,34.288 148.599,26.869 149.908,26.869 
	152.565,31.52 152.565,26.869 153.924,26.869 153.924,34.288 "/>
<path fill="#FFFFFF" d="M220.156,1C188.17,1,162.24,26.931,162.24,58.917c0,31.985,25.93,57.917,57.916,57.917
	s57.916-25.932,57.916-57.917C278.072,26.931,252.142,1,220.156,1 M220.156,108.624c-27.453,0-49.708-22.253-49.708-49.707
	c0-27.453,22.255-49.708,49.708-49.708s49.708,22.255,49.708,49.708C269.864,86.371,247.609,108.624,220.156,108.624"/>
<polygon fill="#0D95CD" points="125.881,64.578 125.881,62.627 127.479,62.627 127.479,55.205 125.881,55.205 125.881,53.255 
	129.553,53.255 129.553,62.627 131.151,62.627 131.151,64.578 "/>
<path fill="#0D95CD" d="M139.664,64.578h-2.075c-1.674,0-3.026-1.351-3.026-3.026v-5.271c0-1.673,1.352-3.026,3.026-3.026h2.075
	c1.66,0,3.027,1.353,3.027,3.026v5.271C142.691,63.227,141.324,64.578,139.664,64.578 M140.616,56.175c0-0.477-0.384-0.86-0.86-0.86
	h-2.274c-0.477,0-0.861,0.383-0.861,0.86v5.484c0,0.475,0.384,0.862,0.861,0.862h2.274c0.476,0,0.86-0.387,0.86-0.862V56.175z"/>
<path fill="#0D95CD" d="M151.204,64.578h-2.074c-1.674,0-3.027-1.351-3.027-3.026v-5.271c0-1.673,1.353-3.026,3.027-3.026h2.074
	c1.66,0,3.027,1.353,3.027,3.026v5.271C154.231,63.227,152.864,64.578,151.204,64.578 M152.156,56.175c0-0.477-0.383-0.86-0.86-0.86
	h-2.274c-0.476,0-0.859,0.383-0.859,0.86v5.484c0,0.475,0.383,0.862,0.859,0.862h2.274c0.477,0,0.86-0.387,0.86-0.862V56.175z"/>
<path fill="#0D95CD" d="M292.46,56.421c0,0-0.062-0.2-0.107-0.309c-0.185-0.521-0.386-0.797-0.861-0.797h-2.305
	c-0.476,0-0.86,0.383-0.86,0.86v5.484c0,0.475,0.384,0.862,0.86,0.862h2.274c0.477,0,0.691-0.278,0.876-0.8
	c0.032-0.123,0.092-0.306,0.092-0.306l1.935,0.507c-0.183,1.504-1.46,2.656-2.994,2.656h-2.075c-1.675,0-3.027-1.351-3.027-3.026
	v-5.271c0-1.673,1.352-3.026,3.027-3.026h2.089c1.537,0,2.812,1.152,3.012,2.644L292.46,56.421z"/>
<rect x="296.947" y="53.255" fill="#0D95CD" width="2.074" height="11.323"/>
<polygon fill="#0D95CD" points="306.304,55.314 306.304,64.578 304.231,64.578 304.231,55.314 301.203,55.314 301.203,53.254 
	309.331,53.254 309.331,55.314 "/>
<rect x="311.821" y="53.255" fill="#0D95CD" width="2.074" height="11.323"/>
<polygon fill="#0D95CD" points="317.308,64.578 317.308,53.255 325.436,53.255 325.436,55.314 319.368,55.314 319.368,57.742 
	324.007,57.742 324.007,59.816 319.368,59.816 319.368,62.52 325.436,62.52 325.436,64.578 "/>
<path fill="#0D95CD" d="M334.041,56.421c0,0-0.046-0.2-0.092-0.309c-0.185-0.521-0.399-0.797-0.86-0.797h-2.305
	c-0.475,0-0.86,0.383-0.86,0.86v0.399c0,0.538,0.307,0.876,0.845,1.015c0.507,0.122,2.98,0.752,2.98,0.752
	c1.246,0.307,2.167,1.398,2.167,2.75v0.417c0,1.704-1.276,3.07-2.981,3.07h-2.089c-1.552,0-2.828-1.152-3.012-2.656l1.936-0.507
	c0,0,0.062,0.183,0.092,0.306c0.184,0.522,0.399,0.8,0.875,0.8h2.304c0.462,0,0.847-0.387,0.847-0.862v-0.568
	c0-0.355-0.216-0.659-0.539-0.753l-3.579-0.982c-1.122-0.307-1.905-1.43-1.905-2.676v-0.535c0-1.675,1.214-2.89,2.888-2.89h2.228
	c1.536,0,2.812,1.152,2.996,2.644L334.041,56.421z"/>
<path fill="#FFFFFF" d="M184.934,64.578l-2.059-4.623h-1.737v4.623h-2.059V53.255h5.102c1.659,0,3.026,1.353,3.026,3.026v0.648
	c0,1.365-0.907,2.518-2.166,2.888l2.166,4.761H184.934z M185.132,56.175c0-0.477-0.384-0.86-0.859-0.86h-3.135v2.565h3.135
	c0.475,0,0.859-0.384,0.859-0.86V56.175z"/>
<polygon fill="#FFFFFF" points="189.852,64.578 189.852,53.255 197.98,53.255 197.98,55.314 191.911,55.314 191.911,57.742 
	196.551,57.742 196.551,59.816 191.911,59.816 191.911,62.52 197.98,62.52 197.98,64.578 "/>
<path fill="#FFFFFF" d="M206.586,56.421c0,0-0.046-0.2-0.092-0.309c-0.184-0.521-0.4-0.797-0.86-0.797h-2.305
	c-0.477,0-0.861,0.383-0.861,0.86v0.399c0,0.538,0.308,0.876,0.845,1.015c0.507,0.122,2.981,0.752,2.981,0.752
	c1.245,0.307,2.167,1.398,2.167,2.75v0.417c0,1.704-1.275,3.07-2.981,3.07h-2.09c-1.553,0-2.828-1.152-3.011-2.656l1.935-0.507
	c0,0,0.062,0.183,0.093,0.306c0.184,0.522,0.399,0.8,0.875,0.8h2.305c0.461,0,0.845-0.387,0.845-0.862v-0.568
	c0-0.355-0.215-0.661-0.537-0.753l-3.581-0.982c-1.121-0.307-1.906-1.43-1.906-2.676v-0.535c0-1.677,1.215-2.89,2.89-2.89h2.227
	c1.538,0,2.813,1.152,2.998,2.644L206.586,56.421z"/>
<rect x="211.258" y="53.255" fill="#FFFFFF" width="2.075" height="11.323"/>
<polygon fill="#FFFFFF" points="216.744,64.578 216.744,53.255 218.803,53.255 218.803,62.52 224.872,62.52 224.872,64.578 "/>
<rect x="227.271" y="53.255" fill="#FFFFFF" width="2.074" height="11.323"/>
<polygon fill="#FFFFFF" points="232.756,64.578 232.756,53.255 240.884,53.255 240.884,55.314 234.816,55.314 234.816,57.742 
	239.455,57.742 239.455,59.816 234.816,59.816 234.816,62.52 240.884,62.52 240.884,64.578 "/>
<polygon fill="#FFFFFF" points="249.905,64.578 245.803,57.297 245.803,64.578 243.744,64.578 243.744,53.255 245.74,53.255 
	249.797,60.351 249.797,53.255 251.871,53.255 251.871,64.578 "/>
<polygon fill="#FFFFFF" points="259.155,55.314 259.155,64.578 257.082,64.578 257.082,55.314 254.054,55.314 254.054,53.254 
	262.183,53.254 262.183,55.314 "/>
</svg>
